<?xml version="1.0" encoding="utf-8"?>
<svg xmlns="http://www.w3.org/2000/svg" viewBox="0 0 500 500" xmlns:bx="https://boxy-svg.com">
  <path style="fill: rgb(255, 139, 236);" d="M 440.8996666666667 12.068 C 431.5073333333333 14.416000000000002 412.7226666666666 19.112 392.61066666666665 25.441666666666666 C 372.4986666666667 31.77133333333333 351.0593333333333 39.73466666666667 325.43416666666667 52.70033333333333 C 299.809 65.666 269.998 83.634 247.02733333333333 101.19383333333333 C 224.0566666666667 118.75366666666666 207.92633333333333 135.90533333333335 193.6335 155.91533333333334 C 179.34066666666664 175.92533333333333 166.88533333333334 198.79366666666667 158.10533333333333 218.80366666666666 C 149.32533333333333 238.81366666666668 144.2206666666667 255.96533333333335 141.56633333333335 277.0985 C 138.912 298.2316666666667 138.708 323.34633333333335 140.95399999999998 346.41900000000004 C 143.20000000000002 369.4916666666666 147.896 390.52233333333334 155.655 413.0845 C 163.41400000000002 435.6466666666667 174.236 459.74033333333335 180.56583333333333 470.9705000000001 C 186.89566666666667 482.2006666666667 188.73333333333335 480.56733333333335 194.24616666666665 472.50216666666665 C 199.75900000000001 464.43700000000007 208.947 449.94 221.40216666666666 436.7701666666667 C 233.85733333333334 423.6003333333333 249.57966666666667 411.7576666666667 278.4716666666667 392.66650000000004 C 307.3636666666667 373.5753333333334 349.42533333333336 347.2356666666667 379.64450000000005 325.8985 C 409.8636666666667 304.5613333333333 428.24033333333335 288.2266666666667 444.1666666666667 266.8895 C 460.093 245.5523333333333 473.569 219.21266666666665 481.5321666666667 197.56916666666666 C 489.49533333333335 175.92566666666667 491.9456666666667 158.97833333333332 492.45616666666666 141.01016666666666 C 492.9666666666667 123.04199999999999 491.5373333333334 104.053 490.108 94.96683333333333 C 488.6786666666667 85.88066666666667 487.24933333333337 86.69733333333333 481.22599999999994 93.129 C 475.20266666666663 99.56066666666668 464.5853333333334 111.60733333333333 459.88916666666665 113.649 C 455.193 115.69066666666667 456.41799999999995 107.72733333333333 455.8053333333333 88.73833333333334 C 455.19266666666664 69.74933333333333 452.7423333333333 39.73466666666666 451.5171666666666 24.727333333333334 C 450.292 9.72 450.292 9.72 450.292 9.72 C 450.292 9.72 450.292 9.72 440.8996666666667 12.068" bx:d="M 450.292 9.72 U 393.938 23.808 U 329.62 47.698 U 240.187 101.602 U 191.796 153.057 U 154.43 221.662 U 139.116 273.117 U 138.504 348.461 U 152.592 411.553 U 185.058 483.834 U 190.571 478.934 U 218.135 435.443 U 265.302 399.915 U 391.487 320.896 U 446.617 271.892 U 487.045 192.873 U 494.396 142.031 U 490.108 85.064 U 485.82 87.514 U 453.968 123.654 U 457.643 99.764 U 450.292 9.72 U 450.292 9.72 Z 1@f58deeb6"/>
</svg>